<?xml version="1.0" encoding="UTF-8" standalone="no"?>
<!DOCTYPE svg PUBLIC "-//W3C//DTD SVG 1.1//EN" "http://www.w3.org/Graphics/SVG/1.1/DTD/svg11.dtd">
<svg width="100%" height="100%" viewBox="0 0 2700 900" version="1.1" xmlns="http://www.w3.org/2000/svg" xmlns:xlink="http://www.w3.org/1999/xlink" xml:space="preserve" xmlns:serif="http://www.serif.com/" style="fill-rule:evenodd;clip-rule:evenodd;stroke-linejoin:round;stroke-miterlimit:2;">
    <g id="Layer1" transform="matrix(1,0,0,1,-293.915,-728.723)">
        <path d="M597.46,1397.71C597.253,1383.83 608.351,1390.04 608.351,1390.04C608.351,1390.04 684.165,1433.16 692.729,1438.1C700.766,1442.74 699.87,1449.74 699.87,1449.74C699.87,1449.74 700.069,1540.79 700.079,1549.66C700.094,1563.14 688.286,1556.65 688.286,1556.65C688.286,1556.65 609.724,1511.43 603.392,1507.72C597.347,1504.18 597.777,1498.85 597.777,1498.85L597.46,1397.71Z" style="fill:rgb(229,12,0);stroke:rgb(229,12,0);stroke-width:1px;"/>
        <g transform="matrix(-1,0,0,1,1413.85,-267.23)">
            <path d="M641.851,1431.52C641.644,1417.64 637.25,1409.39 637.25,1409.39C637.25,1409.39 684.165,1433.16 692.729,1438.1C700.766,1442.74 699.87,1449.74 699.87,1449.74C699.87,1449.74 700.069,1540.79 700.079,1549.66C700.094,1563.14 688.286,1556.65 688.286,1556.65C688.286,1556.65 630.622,1524.13 624.29,1520.42C618.245,1516.88 619.127,1510.41 619.127,1510.41L641.851,1431.52Z" style="fill:rgb(229,12,0);stroke:rgb(229,12,0);stroke-width:1px;"/>
        </g>
        <path d="M482.868,1331.49C482.662,1317.61 493.76,1323.82 493.76,1323.82C493.76,1323.82 569.573,1366.94 578.137,1371.88C586.174,1376.52 585.278,1383.52 585.278,1383.52C585.278,1383.52 585.477,1474.57 585.487,1483.44C585.502,1496.92 573.695,1490.43 573.695,1490.43C573.695,1490.43 495.132,1445.21 488.8,1441.5C482.755,1437.96 483.185,1432.63 483.185,1432.63L482.868,1331.49Z" style="fill:rgb(255,112,0);stroke:rgb(255,112,0);stroke-width:1px;"/>
        <path d="M368.277,1265.27C368.07,1251.39 379.168,1257.6 379.168,1257.6C379.168,1257.6 454.981,1300.72 463.545,1305.66C471.583,1310.3 470.686,1317.3 470.686,1317.3C470.686,1317.3 470.885,1408.35 470.895,1417.22C470.91,1430.7 459.103,1424.21 459.103,1424.21C459.103,1424.21 380.541,1378.99 374.208,1375.28C368.163,1371.74 368.593,1366.41 368.593,1366.41L368.277,1265.27Z" style="fill:rgb(0,156,19);stroke:rgb(0,156,19);stroke-width:1px;"/>
        <path d="M483.147,1194.94C482.941,1181.06 494.039,1187.27 494.039,1187.27C494.039,1187.27 569.852,1230.39 578.416,1235.34C586.454,1239.97 585.557,1246.97 585.557,1246.97C585.557,1246.97 585.756,1338.03 585.766,1346.89C585.781,1360.38 573.974,1353.88 573.974,1353.88C573.974,1353.88 495.411,1308.66 489.079,1304.95C483.034,1301.41 483.464,1296.08 483.464,1296.08L483.147,1194.94Z" style="fill:rgb(255,215,0);stroke:rgb(255,215,0);stroke-width:1px;"/>
        <path d="M368.277,1128.44C368.07,1114.56 379.168,1120.77 379.168,1120.77C379.168,1120.77 454.981,1163.89 463.545,1168.83C471.583,1173.47 470.686,1180.47 470.686,1180.47C470.686,1180.47 470.885,1271.52 470.895,1280.38C470.91,1293.87 459.103,1287.38 459.103,1287.38C459.103,1287.38 380.541,1242.15 374.208,1238.45C368.163,1234.91 368.593,1229.58 368.593,1229.58L368.277,1128.44Z" style="fill:rgb(0,156,19);stroke:rgb(0,156,19);stroke-width:1px;"/>
        <g transform="matrix(1,0,0,1,115.133,-200.624)">
            <path d="M368.277,1128.44C368.07,1114.56 379.168,1120.77 379.168,1120.77C379.168,1120.77 454.981,1163.89 463.545,1168.83C471.583,1173.47 470.686,1180.47 470.686,1180.47C470.686,1180.47 470.885,1271.52 470.895,1280.38C470.91,1293.87 459.103,1287.38 459.103,1287.38C459.103,1287.38 380.541,1242.15 374.208,1238.45C368.163,1234.91 368.593,1229.58 368.593,1229.58L368.277,1128.44Z" style="fill:rgb(0,156,19);stroke:rgb(0,156,19);stroke-width:1px;"/>
        </g>
        <g transform="matrix(1,0,0,1,-0.997505,-134.427)">
            <path d="M615.456,1375.22L707.461,1322.07L800.382,1375.92L708.298,1429.18L615.456,1375.22Z" style="fill:rgb(255,112,0);stroke:rgb(255,112,0);stroke-width:8.41px;stroke-linecap:round;stroke-miterlimit:1.5;"/>
        </g>
        <g transform="matrix(1,0,0,1,1.22872,-403.49)">
            <path d="M615.456,1375.22L707.461,1322.07L800.382,1375.92L708.298,1429.18L615.456,1375.22Z" style="fill:rgb(38,122,255);stroke:rgb(38,122,255);stroke-width:8.41px;stroke-linecap:round;stroke-miterlimit:1.5;"/>
        </g>
        <g transform="matrix(-1,0,0,1,1415.21,-2.27374e-13)">
            <path d="M597.46,1397.71C597.253,1383.83 608.351,1390.04 608.351,1390.04C608.351,1390.04 684.165,1433.16 692.729,1438.1C700.766,1442.74 699.87,1449.74 699.87,1449.74C699.87,1449.74 700.069,1540.79 700.079,1549.66C700.094,1563.14 688.286,1556.65 688.286,1556.65C688.286,1556.65 609.724,1511.43 603.392,1507.72C597.347,1504.18 597.777,1498.85 597.777,1498.85L597.46,1397.71Z" style="fill:rgb(255,215,0);stroke:rgb(255,215,0);stroke-width:1px;"/>
        </g>
        <g transform="matrix(-1,0,0,1,1413.29,-403.261)">
            <path d="M597.46,1397.71C597.253,1383.83 608.351,1390.04 608.351,1390.04C608.351,1390.04 684.165,1433.16 692.729,1438.1C700.766,1442.74 699.87,1449.74 699.87,1449.74C699.87,1449.74 700.069,1540.79 700.079,1549.66C700.094,1563.14 688.286,1556.65 688.286,1556.65C688.286,1556.65 637.594,1528.36 631.262,1524.66C625.217,1521.12 598.755,1458.97 598.755,1458.97L597.46,1397.71Z" style="fill:rgb(0,156,19);stroke:rgb(0,156,19);stroke-width:1px;"/>
        </g>
        <g transform="matrix(-1,0,0,1,1298.7,-468.051)">
            <path d="M597.46,1397.71C597.253,1383.83 608.351,1390.04 608.351,1390.04C608.351,1390.04 684.165,1433.16 692.729,1438.1C700.766,1442.74 699.87,1449.74 699.87,1449.74C699.87,1449.74 700.069,1540.79 700.079,1549.66C700.094,1563.14 688.286,1556.65 688.286,1556.65C688.286,1556.65 609.724,1511.43 603.392,1507.72C597.347,1504.18 597.777,1498.85 597.777,1498.85L597.46,1397.71Z" style="fill:rgb(255,112,0);stroke:rgb(255,112,0);stroke-width:1px;"/>
        </g>
        <g transform="matrix(-1,0,0,1,1298.09,-200.837)">
            <path d="M597.46,1397.71C597.253,1383.83 608.351,1390.04 608.351,1390.04C608.351,1390.04 684.165,1433.16 692.729,1438.1C700.766,1442.74 699.87,1449.74 699.87,1449.74C699.87,1449.74 700.069,1540.79 700.079,1549.66C700.094,1563.14 688.286,1556.65 688.286,1556.65C688.286,1556.65 609.724,1511.43 603.392,1507.72C597.347,1504.18 597.777,1498.85 597.777,1498.85L597.46,1397.71Z" style="fill:rgb(229,12,0);stroke:rgb(229,12,0);stroke-width:1px;"/>
        </g>
        <g transform="matrix(-0.986762,0,0,0.966117,1290.11,-286.787)">
            <path d="M597.46,1397.71C597.253,1383.83 608.351,1390.04 608.351,1390.04C608.351,1390.04 684.165,1433.16 692.729,1438.1C700.766,1442.74 699.87,1449.74 699.87,1449.74C699.87,1449.74 700.069,1540.79 700.079,1549.66C700.094,1563.14 688.286,1556.65 688.286,1556.65C688.286,1556.65 609.724,1511.43 603.392,1507.72C597.347,1504.18 597.777,1498.85 597.777,1498.85L597.46,1397.71Z" style="fill:rgb(255,215,0);stroke:rgb(255,215,0);stroke-width:1.02px;"/>
        </g>
        <g transform="matrix(-0.945778,0,0,0.950883,1375.28,-61.0948)">
            <path d="M597.46,1397.71C597.253,1383.83 608.351,1390.04 608.351,1390.04C608.351,1390.04 684.165,1433.16 692.729,1438.1C700.766,1442.74 699.87,1449.74 699.87,1449.74C699.87,1449.74 700.069,1540.79 700.079,1549.66C700.094,1563.14 688.286,1556.65 688.286,1556.65C688.286,1556.65 609.724,1511.43 603.392,1507.72C597.347,1504.18 597.777,1498.85 597.777,1498.85L597.46,1397.71Z" style="fill:rgb(0,173,21);stroke:rgb(0,173,21);stroke-width:1.05px;"/>
        </g>
        <g transform="matrix(1,0,0,1,1.13687e-13,-2.4022)">
            <path d="M615.456,1375.22L707.461,1322.07L800.382,1375.92L708.298,1429.18L615.456,1375.22Z" style="fill:rgb(38,122,255);stroke:rgb(38,122,255);stroke-width:8.41px;stroke-linecap:round;stroke-miterlimit:1.5;"/>
        </g>
        <g transform="matrix(1,0,0,1,-114.777,-204.306)">
            <path d="M615.456,1375.22L707.461,1322.07L800.382,1375.92L708.298,1429.18L615.456,1375.22Z" style="fill:rgb(0,156,19);stroke:rgb(0,156,19);stroke-width:8.41px;stroke-linecap:round;stroke-miterlimit:1.5;"/>
        </g>
        <g transform="matrix(1,0,0,1,-228.891,-270.694)">
            <path d="M615.456,1375.22L707.461,1322.07L800.382,1375.92L708.298,1429.18L615.456,1375.22Z" style="fill:rgb(38,122,255);stroke:rgb(38,122,255);stroke-width:8.41px;stroke-linecap:round;stroke-miterlimit:1.5;"/>
        </g>
        <g transform="matrix(1,0,0,1,-114.777,-471.357)">
            <path d="M615.456,1375.22L707.461,1322.07L800.382,1375.92L708.298,1429.18L615.456,1375.22Z" style="fill:rgb(255,215,0);stroke:rgb(255,215,0);stroke-width:8.41px;stroke-linecap:round;stroke-miterlimit:1.5;"/>
        </g>
    </g>
    <g id="Layer11" serif:id="Layer1" transform="matrix(-1,0,0,1,2993.92,-738.068)">
        <path d="M597.46,1397.71C597.253,1383.83 608.351,1390.04 608.351,1390.04C608.351,1390.04 684.165,1433.16 692.729,1438.1C700.766,1442.74 699.87,1449.74 699.87,1449.74C699.87,1449.74 700.069,1540.79 700.079,1549.66C700.094,1563.14 688.286,1556.65 688.286,1556.65C688.286,1556.65 609.724,1511.43 603.392,1507.72C597.347,1504.18 597.777,1498.85 597.777,1498.85L597.46,1397.71Z" style="fill:rgb(229,12,0);stroke:rgb(229,12,0);stroke-width:1px;"/>
        <g transform="matrix(-0.945778,0,0,0.950883,1375.28,-195.448)">
            <path d="M628.064,1416.53C627.857,1402.66 623.327,1398 623.327,1398C623.327,1398 684.165,1433.16 692.729,1438.1C700.766,1442.74 699.87,1449.74 699.87,1449.74C699.87,1449.74 700.069,1540.79 700.079,1549.66C700.094,1563.14 688.286,1556.65 688.286,1556.65C688.286,1556.65 616.26,1515.35 609.928,1511.65C603.883,1508.11 616.235,1509.14 616.235,1509.14L628.064,1416.53Z" style="fill:rgb(0,156,19);stroke:rgb(0,156,19);stroke-width:1.05px;"/>
        </g>
        <path d="M482.868,1331.49C482.662,1317.61 493.76,1323.82 493.76,1323.82C493.76,1323.82 569.573,1366.94 578.137,1371.88C586.174,1376.52 585.278,1383.52 585.278,1383.52C585.278,1383.52 585.477,1474.57 585.487,1483.44C585.502,1496.92 573.695,1490.43 573.695,1490.43C573.695,1490.43 495.132,1445.21 488.8,1441.5C482.755,1437.96 483.185,1432.63 483.185,1432.63L482.868,1331.49Z" style="fill:rgb(255,215,0);stroke:rgb(255,215,0);stroke-width:1px;"/>
        <path d="M368.277,1265.27C368.07,1251.39 379.168,1257.6 379.168,1257.6C379.168,1257.6 454.981,1300.72 463.545,1305.66C471.583,1310.3 470.686,1317.3 470.686,1317.3C470.686,1317.3 470.885,1408.35 470.895,1417.22C470.91,1430.7 459.103,1424.21 459.103,1424.21C459.103,1424.21 380.541,1378.99 374.208,1375.28C368.163,1371.74 368.593,1366.41 368.593,1366.41L368.277,1265.27Z" style="fill:rgb(38,122,255);stroke:rgb(38,122,255);stroke-width:1px;"/>
        <path d="M483.147,1194.94C482.941,1181.06 494.039,1187.27 494.039,1187.27C494.039,1187.27 569.852,1230.39 578.416,1235.34C586.454,1239.97 585.557,1246.97 585.557,1246.97C585.557,1246.97 585.756,1338.03 585.766,1346.89C585.781,1360.38 573.974,1353.88 573.974,1353.88C573.974,1353.88 495.411,1308.66 489.079,1304.95C483.034,1301.41 483.464,1296.08 483.464,1296.08L483.147,1194.94Z" style="fill:rgb(255,112,0);stroke:rgb(255,112,0);stroke-width:1px;"/>
        <path d="M368.277,1128.44C368.07,1114.56 379.168,1120.77 379.168,1120.77C379.168,1120.77 454.981,1163.89 463.545,1168.83C471.583,1173.47 470.686,1180.47 470.686,1180.47C470.686,1180.47 470.885,1271.52 470.895,1280.38C470.91,1293.87 459.103,1287.38 459.103,1287.38C459.103,1287.38 380.541,1242.15 374.208,1238.45C368.163,1234.91 368.593,1229.58 368.593,1229.58L368.277,1128.44Z" style="fill:rgb(255,112,0);stroke:rgb(255,112,0);stroke-width:1px;"/>
        <g transform="matrix(1,0,0,1,1.2815,-133.266)">
            <path d="M368.277,1128.44C368.07,1114.56 379.168,1120.77 379.168,1120.77C379.168,1120.77 454.981,1163.89 463.545,1168.83C471.583,1173.47 470.686,1180.47 470.686,1180.47C470.686,1180.47 470.885,1271.52 470.895,1280.38C470.91,1293.87 459.103,1287.38 459.103,1287.38C459.103,1287.38 380.541,1242.15 374.208,1238.45C368.163,1234.91 368.593,1229.58 368.593,1229.58L368.277,1128.44Z" style="fill:rgb(229,12,0);stroke:rgb(229,12,0);stroke-width:1px;"/>
        </g>
        <g transform="matrix(1,0,0,1,-0.997505,-134.427)">
            <path d="M615.456,1375.22L707.461,1322.07L800.382,1375.92L708.298,1429.18L615.456,1375.22Z" style="fill:rgb(255,112,0);stroke:rgb(255,112,0);stroke-width:8.41px;stroke-linecap:round;stroke-miterlimit:1.5;"/>
        </g>
        <g transform="matrix(1,0,0,1,1.22872,-403.49)">
            <path d="M615.456,1375.22L707.461,1322.07L800.382,1375.92L708.298,1429.18L615.456,1375.22Z" style="fill:rgb(38,122,255);stroke:rgb(38,122,255);stroke-width:8.41px;stroke-linecap:round;stroke-miterlimit:1.5;"/>
        </g>
        <g transform="matrix(-1,0,0,1,1415.21,-2.27374e-13)">
            <path d="M597.46,1397.71C597.253,1383.83 608.351,1390.04 608.351,1390.04C608.351,1390.04 684.165,1433.16 692.729,1438.1C700.766,1442.74 699.87,1449.74 699.87,1449.74C699.87,1449.74 700.069,1540.79 700.079,1549.66C700.094,1563.14 688.286,1556.65 688.286,1556.65C688.286,1556.65 609.724,1511.43 603.392,1507.72C597.347,1504.18 597.777,1498.85 597.777,1498.85L597.46,1397.71Z" style="fill:rgb(255,215,0);stroke:rgb(255,215,0);stroke-width:1px;"/>
        </g>
        <g transform="matrix(-1,0,0,1,1413.29,-403.261)">
            <path d="M597.46,1397.71C597.253,1383.83 608.351,1390.04 608.351,1390.04C608.351,1390.04 684.165,1433.16 692.729,1438.1C700.766,1442.74 699.87,1449.74 699.87,1449.74C699.87,1449.74 700.069,1540.79 700.079,1549.66C700.094,1563.14 688.286,1556.65 688.286,1556.65C688.286,1556.65 619.661,1516.87 613.329,1513.16C607.284,1509.63 597.53,1485.01 597.53,1485.01L597.46,1397.71Z" style="fill:rgb(0,156,19);stroke:rgb(0,156,19);stroke-width:1px;"/>
        </g>
        <g transform="matrix(-1,0,0,1,1298.09,-200.837)">
            <path d="M597.46,1397.71C597.253,1383.83 608.351,1390.04 608.351,1390.04C608.351,1390.04 684.165,1433.16 692.729,1438.1C700.766,1442.74 699.87,1449.74 699.87,1449.74C699.87,1449.74 700.069,1540.79 700.079,1549.66C700.094,1563.14 688.286,1556.65 688.286,1556.65C688.286,1556.65 609.724,1511.43 603.392,1507.72C597.347,1504.18 597.777,1498.85 597.777,1498.85L597.46,1397.71Z" style="fill:rgb(38,122,255);stroke:rgb(38,122,255);stroke-width:1px;"/>
        </g>
        <g transform="matrix(-0.986762,0,0,0.966117,1290.11,-286.787)">
            <path d="M597.46,1397.71C597.253,1383.83 608.351,1390.04 608.351,1390.04C608.351,1390.04 684.165,1433.16 692.729,1438.1C700.766,1442.74 699.87,1449.74 699.87,1449.74C699.87,1449.74 700.069,1540.79 700.079,1549.66C700.094,1563.14 688.286,1556.65 688.286,1556.65C688.286,1556.65 609.724,1511.43 603.392,1507.72C597.347,1504.18 597.777,1498.85 597.777,1498.85L597.46,1397.71Z" style="fill:rgb(229,12,0);stroke:rgb(229,12,0);stroke-width:1.02px;"/>
        </g>
        <g transform="matrix(-0.945778,0,0,0.950883,1375.28,-61.0948)">
            <path d="M597.46,1397.71C597.253,1383.83 608.351,1390.04 608.351,1390.04C608.351,1390.04 684.165,1433.16 692.729,1438.1C700.766,1442.74 699.87,1449.74 699.87,1449.74C699.87,1449.74 700.069,1540.79 700.079,1549.66C700.094,1563.14 688.286,1556.65 688.286,1556.65C688.286,1556.65 609.724,1511.43 603.392,1507.72C597.347,1504.18 597.777,1498.85 597.777,1498.85L597.46,1397.71Z" style="fill:rgb(229,12,0);stroke:rgb(229,12,0);stroke-width:1.05px;"/>
        </g>
        <g transform="matrix(1,0,0,1,1.13687e-13,-2.4022)">
            <path d="M615.456,1375.22L707.461,1322.07L800.382,1375.92L708.298,1429.18L615.456,1375.22Z" style="fill:rgb(0,156,19);stroke:rgb(0,156,19);stroke-width:8.41px;stroke-linecap:round;stroke-miterlimit:1.5;"/>
        </g>
        <g transform="matrix(1,0,0,1,-114.777,-204.306)">
            <path d="M615.456,1375.22L707.461,1322.07L800.382,1375.92L708.298,1429.18L615.456,1375.22Z" style="fill:rgb(255,215,0);stroke:rgb(255,215,0);stroke-width:8.41px;stroke-linecap:round;stroke-miterlimit:1.5;"/>
        </g>
        <g transform="matrix(0.966411,0,0,0.959063,-84.8581,-283.356)">
            <path d="M615.456,1375.22L707.461,1322.07L800.382,1375.92L708.298,1429.18L615.456,1375.22Z" style="fill:rgb(255,112,0);stroke:rgb(255,112,0);stroke-width:8.73px;stroke-linecap:round;stroke-miterlimit:1.5;"/>
        </g>
        <g transform="matrix(1,0,0,1,-228.416,-401.264)">
            <path d="M615.456,1375.22L707.461,1322.07L800.382,1375.92L708.298,1429.18L615.456,1375.22Z" style="fill:rgb(255,215,0);stroke:rgb(255,215,0);stroke-width:8.41px;stroke-linecap:round;stroke-miterlimit:1.5;"/>
        </g>
        <g transform="matrix(-0.945778,0,0,0.950883,1148,-330.169)">
            <path d="M597.46,1397.71C597.253,1383.83 608.351,1390.04 608.351,1390.04C608.351,1390.04 684.165,1433.16 692.729,1438.1C700.766,1442.74 699.87,1449.74 699.87,1449.74C699.87,1449.74 700.069,1540.79 700.079,1549.66C700.094,1563.14 688.286,1556.65 688.286,1556.65C688.286,1556.65 609.724,1511.43 603.392,1507.72C597.347,1504.18 597.777,1498.85 597.777,1498.85L597.46,1397.71Z" style="fill:rgb(0,156,19);stroke:rgb(0,156,19);stroke-width:1.05px;"/>
        </g>
    </g>
    <path id="Layer3" d="M1325.24,560.97C1287.7,596.48 1016.2,806.852 831.843,798.005C449.517,779.658 462.303,432.251 462.303,432.251C462.303,432.251 449.517,89.119 831.843,70.772C1016.22,61.924 1281.97,279.686 1325.25,307.818C1325.8,308.173 1325.54,308.246 1184.99,424.976C1184.99,424.976 954.502,234.858 788.163,242.747C472.518,257.716 488.435,434.323 488.435,434.323C488.435,434.323 472.518,611.062 788.163,626.031C951.779,633.79 1176.65,452.38 1183.97,446.437C1184.03,446.386 1184.09,446.336 1184.15,446.288C1344.37,324.248 1363.19,309.636 1365.37,307.905C1365.36,307.86 1365.39,307.84 1365.43,307.818C1365.5,307.771 1365.57,307.724 1365.64,307.676C1409.59,278.961 1674.76,61.939 1858.84,70.772C2241.16,89.119 2228.38,432.251 2228.38,432.251C2228.38,432.251 2241.16,779.658 1858.84,798.005C1674.46,806.853 1402.92,596.435 1365.43,560.959C1362.91,558.577 1492.03,455.605 1506.53,446.288C1506.53,446.288 1736.18,633.919 1902.52,626.031C2218.16,611.062 2202.24,434.323 2202.24,434.323C2202.24,434.323 2205.47,398.571 2180.26,357.875C2149.45,308.122 2076.14,250.981 1902.52,242.747C1736.18,234.858 1505.69,424.976 1505.69,424.976C1326.33,559.755 1505.35,426.2 1325.24,560.97ZM677.884,682.868C681.758,684.48 685.237,684.657 688.319,683.399C691.401,682.141 693.566,680.015 694.812,677.019C695.896,674.415 695.849,671.588 694.673,668.54C693.497,665.491 690.776,663.08 686.511,661.305C682.278,659.544 678.764,659.362 675.968,660.758C673.172,662.154 671.164,664.317 669.945,667.247C668.577,670.536 668.728,673.616 670.398,676.488C672.067,679.359 674.563,681.486 677.884,682.868ZM664.015,717.718C668.085,719.411 671.92,719.718 675.521,718.638C679.121,717.557 681.829,714.836 683.644,710.473C685.527,705.947 685.573,701.936 683.78,698.441C681.988,694.945 678.927,692.296 674.596,690.495C670.396,688.747 666.471,688.518 662.822,689.807C659.173,691.097 656.468,693.858 654.707,698.09C653.19,701.737 653.092,705.392 654.414,709.054C655.736,712.717 658.936,715.605 664.015,717.718ZM664.516,681.26C662.508,679.202 661.111,677.188 660.326,675.219C658.837,671.545 658.96,667.623 660.694,663.456C662.861,658.246 666.612,654.555 671.947,652.382C677.282,650.209 683.416,650.565 690.352,653.45C697.059,656.241 701.582,660.194 703.922,665.312C706.262,670.43 706.45,675.349 704.486,680.07C702.67,684.433 700.094,687.505 696.755,689.286C694.881,690.302 692.337,691.001 689.123,691.382C691.465,693.923 693.108,696.401 694.051,698.818C695.789,703.36 695.575,708.236 693.408,713.446C690.847,719.6 686.609,723.957 680.693,726.519C674.777,729.08 668.042,728.789 660.488,725.647C653.683,722.816 648.697,718.574 645.529,712.921C642.362,707.268 642.241,700.925 645.167,693.892C646.887,689.757 649.383,686.604 652.655,684.432C655.927,682.26 659.88,681.202 664.516,681.26ZM717.228,662.479L727.408,665.16L709.977,731.352L748.035,741.374L745.677,750.326L697.44,737.623L717.228,662.479ZM796.26,676.523C809.925,677.728 819.655,683.01 825.45,692.371C829.975,699.673 831.767,708.664 830.826,719.343C829.807,730.9 826.027,740.25 819.486,747.391C811.808,755.777 801.594,759.408 788.842,758.284C776.933,757.235 767.918,752.475 761.797,744.006C756.388,735.883 754.195,726.025 755.216,714.432C756.139,703.964 759.528,695.235 765.383,688.246C772.9,679.279 783.192,675.372 796.26,676.523ZM790.933,749.016C800.172,749.831 807.147,747.109 811.858,740.851C816.569,734.593 819.304,727.16 820.062,718.554C820.864,709.456 819.13,701.921 814.859,695.952C810.588,689.982 804.325,686.633 796.07,685.906C788.061,685.2 781.284,687.373 775.741,692.425C770.198,697.477 766.955,705.36 766.011,716.074C765.255,724.645 766.787,732.064 770.607,738.33C774.427,744.597 781.202,748.159 790.933,749.016ZM796.576,676.551M826.038,702.006L838.261,700.425L853.725,718.533L864.229,697.066L875.751,695.842L860.322,725.414L883.825,751.656L871.759,753.217L855.077,733.933L844.27,756.773L832.309,758.32L848.361,726.961L826.038,702.006ZM890.982,723.69C892.84,727.695 895.129,730.637 897.849,732.515C902.995,736.01 909.665,736.129 917.857,732.872C921.527,731.413 924.661,729.56 927.259,727.312C932.285,722.962 933.755,718.165 931.671,712.922C930.107,708.989 927.765,706.676 924.643,705.982C921.501,705.333 917.034,705.458 911.243,706.356L900.582,708.033C893.619,709.131 888.465,709.34 885.12,708.658C879.334,707.467 875.248,703.873 872.864,697.876C870.285,691.388 870.412,685.17 873.247,679.224C876.082,673.277 881.613,668.669 889.838,665.399C897.408,662.39 904.565,661.66 911.31,663.21C918.055,664.76 923.023,669.549 926.215,677.577L917.023,681.232C914.994,677.56 912.767,675.012 910.34,673.585C905.86,671.002 900.048,671.131 892.904,673.971C887.137,676.264 883.473,679.124 881.914,682.552C880.355,685.981 880.213,689.3 881.49,692.512C882.897,696.051 885.401,698.054 889.002,698.52C891.352,698.8 896.248,698.371 903.689,697.234L914.734,695.519C920.06,694.692 924.434,694.718 927.857,695.596C933.787,697.147 938.028,701.135 940.582,707.557C943.76,715.553 943.125,722.428 938.677,728.181C934.228,733.935 928.153,738.342 920.452,741.403C911.473,744.973 903.532,745.474 896.629,742.905C889.738,740.369 884.792,735.182 881.79,727.344L890.982,723.69ZM890.517,664.958M931.383,655.349L940.162,651.398L946.654,665.82L954.902,662.107L958.094,669.198L949.846,672.911L965.023,706.627C965.834,708.428 966.988,709.359 968.485,709.42C969.319,709.469 970.524,709.139 972.1,708.43C972.518,708.242 972.965,708.031 973.44,707.798C973.915,707.565 974.46,707.271 975.074,706.918L978.157,713.767C977.291,714.505 976.348,715.181 975.328,715.795C974.309,716.408 973.172,716.997 971.918,717.562C967.866,719.386 964.65,719.586 962.269,718.163C959.889,716.741 957.953,714.373 956.462,711.061L941.067,676.862L934.073,680.011L930.881,672.92L937.875,669.772L931.383,655.349ZM962.525,658.586L970.688,654.689L974.903,663.521C974.751,661.483 975.391,658.608 976.824,654.896C978.256,651.184 980.675,648.515 984.08,646.889C984.239,646.814 984.517,646.7 984.914,646.55C985.311,646.399 985.994,646.152 986.963,645.806L991.292,654.877C990.737,655.024 990.238,655.185 989.793,655.358C989.348,655.531 988.871,655.739 988.362,655.982C984.034,658.048 981.373,661.028 980.379,664.922C979.385,668.816 979.754,672.576 981.486,676.204L995.523,705.611L986.93,709.712L962.525,658.586ZM1013.76,632.002C1017.34,630.165 1021.24,629.224 1025.46,629.178C1029.67,629.132 1033.35,629.991 1036.47,631.755C1039.47,633.426 1042.12,635.81 1044.43,638.908C1046.12,640.971 1048.28,644.544 1050.89,649.625L1013.95,668.599C1016.73,673.631 1020.05,677.112 1023.89,679.042C1027.74,680.971 1032.03,680.72 1036.77,678.287C1041.19,676.015 1043.97,672.743 1045.11,668.473C1045.74,666.005 1045.8,663.497 1045.28,660.948L1053.61,656.669C1054.34,658.633 1054.67,661.07 1054.6,663.981C1054.53,666.891 1054.1,669.463 1053.3,671.696C1052.02,675.526 1049.7,678.856 1046.36,681.684C1044.58,683.233 1042.4,684.668 1039.83,685.989C1033.56,689.212 1027.07,689.661 1020.36,687.337C1013.66,685.012 1008.2,679.741 1003.97,671.522C999.817,663.429 998.637,655.73 1000.43,648.424C1002.23,641.117 1006.68,635.644 1013.76,632.002ZM1038.72,647.368C1036.49,643.875 1034.19,641.353 1031.81,639.802C1027.39,636.917 1022.47,636.868 1017.04,639.655C1013.15,641.653 1010.61,644.733 1009.42,648.894C1008.23,653.055 1008.66,657.34 1010.73,661.749L1038.72,647.368ZM1012.92,632.319M1043.16,608.073C1041.38,604.549 1040.58,601.686 1040.77,599.484C1041.14,595.569 1044.1,592.075 1049.66,589.001C1050.18,588.711 1050.73,588.428 1051.3,588.151C1051.88,587.874 1052.53,587.571 1053.28,587.24L1057.48,594.83C1056.58,595.246 1055.93,595.553 1055.54,595.751C1055.15,595.949 1054.78,596.142 1054.44,596.33C1051.91,597.731 1050.76,599.223 1050.99,600.808C1051.22,602.392 1052.83,605.869 1055.8,611.237L1064.04,606.678L1067.67,613.25L1059.34,617.86L1083.01,660.624L1074.77,665.184L1051.11,622.42L1044.21,626.237L1040.57,619.665L1047.47,615.848L1043.16,608.073ZM1097.57,635.114C1098.98,637.477 1100.95,638.824 1103.49,639.157C1106.03,639.49 1108.48,638.952 1110.85,637.543C1113.72,635.827 1116.11,633.499 1118.01,630.558C1121.24,625.638 1121.35,620.663 1118.35,615.636L1114.42,609.049C1113.8,610.281 1112.83,611.579 1111.51,612.942C1110.18,614.306 1108.82,615.53 1107.42,616.615L1102.84,620.205C1100.11,622.369 1098.25,624.318 1097.28,626.051C1095.61,628.974 1095.71,631.995 1097.57,635.114ZM1107.51,606.763C1109.25,605.401 1110.03,603.864 1109.88,602.152C1109.81,601.208 1109.36,600.055 1108.55,598.692C1106.89,595.906 1104.69,594.476 1101.96,594.402C1099.22,594.329 1096.01,595.394 1092.31,597.598C1088.04,600.145 1085.7,603.103 1085.29,606.47C1085.05,608.338 1085.53,610.62 1086.72,613.314L1079.09,617.867C1075.66,611.78 1075.12,606.447 1077.46,601.869C1079.8,597.291 1083.44,593.529 1088.38,590.584C1094.1,587.17 1099.4,585.487 1104.28,585.536C1109.12,585.603 1112.91,587.938 1115.66,592.541L1132.38,620.571C1132.89,621.419 1133.47,621.996 1134.12,622.303C1134.78,622.611 1135.66,622.43 1136.79,621.761C1137.15,621.545 1137.55,621.278 1137.97,620.962C1138.4,620.645 1138.84,620.288 1139.3,619.89L1142.91,625.932C1141.85,627.054 1141.02,627.86 1140.41,628.348C1139.8,628.836 1138.91,629.424 1137.76,630.11C1134.95,631.79 1132.31,632.01 1129.84,630.77C1128.54,630.108 1127.18,628.888 1125.75,627.113C1125.38,630.287 1124.12,633.607 1121.96,637.073C1119.8,640.539 1116.84,643.392 1113.08,645.632C1108.57,648.324 1104.07,649.153 1099.57,648.119C1095.07,647.086 1091.6,644.509 1089.14,640.391C1086.45,635.878 1085.77,631.54 1087.1,627.376C1088.44,623.213 1091.22,619.479 1095.45,616.176L1107.51,606.763ZM1088.6,590.449M1108.82,555.427L1117.37,549.742L1138.35,581.276L1148.9,528.764L1161.01,520.707L1151.45,564.681L1204.8,584.905L1193.4,592.494L1149.16,575.095L1145.41,591.89L1160.41,614.439L1151.87,620.123L1108.82,555.427ZM1225.3,562.273C1230.39,558.548 1232.48,554.065 1231.55,548.823C1230.63,543.581 1228.44,538.598 1224.98,533.872C1221.86,529.601 1218.64,526.627 1215.32,524.95C1210.07,522.318 1204.8,522.937 1199.51,526.808C1194.81,530.242 1192.7,534.533 1193.19,539.681C1193.68,544.829 1195.77,549.936 1199.48,555.004C1203.04,559.872 1207.07,563.149 1211.58,564.834C1216.08,566.519 1220.66,565.665 1225.3,562.273ZM1194.82,519.947C1200.71,515.64 1207.13,513.962 1214.07,514.915C1221.02,515.868 1227.28,520.16 1232.85,527.79C1238.24,535.163 1240.9,542.567 1240.83,550C1240.76,557.434 1236.96,563.908 1229.41,569.423C1223.12,574.022 1216.57,575.546 1209.76,573.995C1202.94,572.444 1196.91,568.081 1191.67,560.907C1186.05,553.22 1183.53,545.674 1184.1,538.267C1184.67,530.861 1188.24,524.755 1194.82,519.947ZM1194.72,520.348M1253.07,527.181C1255.19,529.558 1257.28,531.035 1259.34,531.613C1263.1,532.641 1267.35,531.386 1272.1,527.847C1274.93,525.74 1276.96,523.271 1278.19,520.44C1279.43,517.609 1279.09,514.906 1277.17,512.333C1275.71,510.381 1273.75,509.539 1271.26,509.806C1269.7,510.005 1266.98,510.906 1263.12,512.508L1255.91,515.5C1251.32,517.424 1247.67,518.477 1244.94,518.658C1240.12,519.037 1236.36,517.403 1233.64,513.754C1230.44,509.456 1229.39,504.824 1230.51,499.859C1231.63,494.893 1234.8,490.462 1240.04,486.565C1246.88,481.467 1253.31,479.8 1259.33,481.562C1263.12,482.696 1266.08,484.754 1268.21,487.738L1261,493.109C1259.58,491.489 1257.8,490.373 1255.67,489.759C1252.42,489.057 1248.63,490.318 1244.31,493.541C1241.42,495.689 1239.65,497.868 1238.99,500.077C1238.32,502.286 1238.66,504.295 1240.01,506.105C1241.49,508.085 1243.64,508.942 1246.48,508.677C1248.14,508.541 1250.27,507.92 1252.87,506.815L1258.84,504.285C1265.32,501.527 1269.95,500.076 1272.74,499.93C1277.17,499.669 1280.94,501.632 1284.06,505.818C1287.07,509.862 1288.13,514.497 1287.26,519.724C1286.38,524.951 1282.8,529.903 1276.52,534.579C1269.76,539.614 1263.83,541.645 1258.73,540.672C1253.63,539.7 1249.3,537.025 1245.73,532.647L1253.07,527.181ZM1240.31,486.492M1260.81,453.192L1268.52,447.429L1277.99,460.099L1285.23,454.685L1289.89,460.914L1282.64,466.328L1304.77,495.948C1305.95,497.53 1307.28,498.188 1308.76,497.922C1309.58,497.79 1310.69,497.206 1312.07,496.172C1312.44,495.898 1312.83,495.595 1313.24,495.264C1313.66,494.934 1314.12,494.529 1314.65,494.05L1319.14,500.067C1318.46,500.976 1317.68,501.84 1316.82,502.66C1315.96,503.481 1314.98,504.302 1313.88,505.126C1310.32,507.785 1307.22,508.679 1304.59,507.807C1301.96,506.935 1299.55,505.044 1297.38,502.134L1274.93,472.091L1268.79,476.682L1264.13,470.453L1270.27,465.862L1260.81,453.192ZM1310.78,433.933C1313.99,431.518 1317.67,429.93 1321.82,429.17C1325.97,428.411 1329.74,428.636 1333.12,429.845C1336.36,430.984 1339.38,432.884 1342.17,435.547C1344.19,437.294 1346.92,440.45 1350.35,445.017L1317.16,469.97C1320.75,474.459 1324.61,477.328 1328.73,478.579C1332.84,479.829 1337.03,478.855 1341.29,475.655C1345.26,472.667 1347.45,468.972 1347.84,464.57C1348.05,462.031 1347.69,459.549 1346.75,457.124L1354.23,451.497C1355.28,453.309 1356.02,455.655 1356.44,458.535C1356.87,461.416 1356.87,464.024 1356.47,466.359C1355.85,470.351 1354.13,474.024 1351.32,477.378C1349.83,479.206 1347.92,480.989 1345.61,482.727C1339.97,486.966 1333.65,488.507 1326.65,487.352C1319.65,486.196 1313.38,481.926 1307.82,474.541C1302.36,467.269 1299.89,459.88 1300.42,452.375C1300.96,444.87 1304.41,438.723 1310.78,433.933ZM1337.98,444.851C1335.19,441.786 1332.49,439.691 1329.88,438.566C1325.04,436.47 1320.18,437.255 1315.31,440.921C1311.81,443.549 1309.83,447.014 1309.36,451.317C1308.88,455.62 1310.04,459.769 1312.83,463.765L1337.98,444.851ZM1310,434.389M1327.02,397.095L1334.24,391.465L1362,427.036L1366.46,393.027L1376.05,385.541L1372,415.607L1411.86,429.455L1402.27,436.94L1370.77,425.291L1368.96,435.96L1382.05,452.724L1374.83,458.354L1327.02,397.095ZM1425.5,388.062L1432.85,381.711C1435.5,384.588 1438.22,386.545 1441.04,387.58C1443.85,388.616 1447.13,388.724 1450.89,387.904C1454.65,387.085 1458.32,385.385 1461.89,382.805C1465.06,380.514 1467.53,378.02 1469.28,375.322C1471.02,372.624 1471.9,370.025 1471.9,367.525C1471.9,365.024 1471.2,362.801 1469.79,360.857C1468.37,358.884 1466.56,357.573 1464.35,356.926C1462.14,356.279 1459.36,356.404 1456.01,357.302C1453.85,357.862 1449.38,359.533 1442.6,362.315C1435.82,365.097 1430.83,366.709 1427.63,367.151C1423.49,367.745 1419.85,367.408 1416.69,366.14C1413.54,364.872 1410.92,362.795 1408.83,359.906C1406.54,356.732 1405.3,353.115 1405.11,349.056C1404.92,344.996 1406.04,341.003 1408.47,337.076C1410.9,333.149 1414.23,329.659 1418.46,326.604C1423.12,323.24 1427.77,321.024 1432.42,319.956C1437.06,318.888 1441.39,319.121 1445.41,320.655C1449.43,322.189 1452.85,324.749 1455.65,328.335L1448.11,334.693C1444.81,331.028 1441.19,329.073 1437.25,328.828C1433.31,328.582 1428.93,330.204 1424.1,333.691C1419.06,337.324 1416.06,340.892 1415.09,344.398C1414.12,347.904 1414.57,350.958 1416.45,353.56C1418.08,355.819 1420.24,357.09 1422.92,357.372C1425.57,357.674 1430.83,356.15 1438.7,352.799C1446.57,349.449 1452.17,347.437 1455.52,346.765C1460.39,345.81 1464.64,345.998 1468.25,347.327C1471.86,348.656 1474.88,351.007 1477.32,354.382C1479.74,357.727 1481.05,361.571 1481.27,365.914C1481.49,370.256 1480.4,374.544 1478,378.779C1475.6,383.013 1472.15,386.75 1467.66,389.99C1461.97,394.097 1456.6,396.709 1451.56,397.826C1446.52,398.943 1441.7,398.625 1437.11,396.873C1432.52,395.12 1428.65,392.183 1425.5,388.062ZM1513.16,382.08L1467.7,319.061L1474.74,313.985L1479.01,319.905C1478.99,316.392 1479.61,313.303 1480.87,310.639C1482.12,307.974 1484.23,305.569 1487.2,303.424C1491.1,300.618 1495.25,299.143 1499.67,298.999C1504.09,298.856 1508.37,300.06 1512.52,302.613C1516.66,305.166 1520.3,308.616 1523.44,312.963C1526.8,317.625 1528.99,322.426 1530.01,327.365C1531.03,332.304 1530.66,336.918 1528.91,341.206C1527.15,345.494 1524.52,348.907 1521,351.444C1518.42,353.301 1515.72,354.424 1512.89,354.812C1510.07,355.201 1507.39,355.04 1504.88,354.33L1520.88,376.509L1513.16,382.08ZM1491.31,337.053C1495.54,342.916 1499.85,346.393 1504.25,347.483C1508.64,348.573 1512.53,347.901 1515.9,345.467C1519.34,342.991 1521.23,339.42 1521.58,334.753C1521.93,330.086 1519.91,324.707 1515.51,318.615C1511.33,312.809 1507,309.323 1502.52,308.158C1498.05,306.992 1494.16,307.605 1490.84,309.999C1487.55,312.371 1485.75,316.008 1485.44,320.908C1485.12,325.809 1487.08,331.19 1491.31,337.053ZM1570.41,292.356L1579.17,287.713C1581.19,293.313 1581.4,298.616 1579.78,303.622C1578.16,308.628 1574.67,313.001 1569.33,316.741C1562.6,321.451 1555.81,323.112 1548.96,321.725C1542.12,320.337 1536.08,315.902 1530.84,308.418C1525.42,300.674 1523.21,293.269 1524.21,286.202C1525.2,279.136 1528.88,273.379 1535.24,268.932C1541.39,264.626 1547.89,263.204 1554.72,264.665C1561.55,266.126 1567.62,270.656 1572.94,278.256C1573.27,278.718 1573.74,279.422 1574.35,280.367L1540.03,304.382C1543.85,309.236 1547.99,312.108 1552.44,312.996C1556.89,313.884 1561.04,312.984 1564.88,310.295C1567.75,308.294 1569.66,305.835 1570.63,302.917C1571.61,299.999 1571.53,296.479 1570.41,292.356ZM1535.97,297.664L1561.67,279.683C1558.62,276.053 1555.6,273.836 1552.63,273.032C1548.04,271.766 1543.77,272.517 1539.81,275.286C1536.23,277.793 1534.06,281.1 1533.29,285.206C1532.53,289.313 1533.42,293.465 1535.97,297.664ZM1622.14,259.446L1631.16,255.328C1632.85,261.037 1632.74,266.342 1630.82,271.244C1628.91,276.146 1625.18,280.306 1619.62,283.724C1612.62,288.029 1605.75,289.287 1599,287.498C1592.24,285.71 1586.48,280.926 1581.69,273.146C1576.74,265.096 1574.97,257.573 1576.38,250.578C1577.79,243.583 1581.8,238.053 1588.41,233.989C1594.81,230.053 1601.37,229.016 1608.11,230.878C1614.84,232.739 1620.64,237.619 1625.5,245.519C1625.79,246 1626.22,246.73 1626.78,247.71L1591.1,269.659C1594.63,274.73 1598.59,277.841 1602.98,278.99C1607.38,280.139 1611.57,279.485 1615.56,277.028C1618.54,275.199 1620.6,272.857 1621.74,270.002C1622.88,267.146 1623.01,263.628 1622.14,259.446ZM1587.44,262.713L1614.16,246.279C1611.33,242.476 1608.45,240.085 1605.53,239.107C1601.03,237.572 1596.72,238.07 1592.6,240.601C1588.88,242.892 1586.51,246.065 1585.51,250.119C1584.5,254.174 1585.15,258.372 1587.44,262.713ZM1682.79,246.913L1679.5,240.635C1678.93,247.224 1675.58,252.123 1669.46,255.332C1665.49,257.412 1661.28,258.23 1656.8,257.788C1652.33,257.345 1648.15,255.643 1644.27,252.681C1640.39,249.719 1637.11,245.693 1634.44,240.602C1631.84,235.636 1630.31,230.696 1629.84,225.784C1629.38,220.871 1630.23,216.47 1632.41,212.579C1634.6,208.688 1637.73,205.671 1641.82,203.526C1644.82,201.954 1647.82,201.186 1650.83,201.223C1653.84,201.26 1656.6,201.909 1659.14,203.169L1646.22,178.526L1654.6,174.13L1690.61,242.812L1682.79,246.913ZM1643.11,236.058C1646.45,242.429 1650.29,246.488 1654.63,248.235C1658.97,249.981 1662.97,249.897 1666.62,247.981C1670.31,246.049 1672.65,242.9 1673.65,238.535C1674.64,234.171 1673.52,228.896 1670.28,222.712C1666.71,215.903 1662.78,211.594 1658.48,209.783C1654.19,207.973 1650.12,208.075 1646.28,210.089C1642.53,212.053 1640.2,215.225 1639.29,219.604C1638.38,223.983 1639.66,229.468 1643.11,236.058ZM1729.97,203.374L1739.08,200.883C1740.63,207.231 1740.16,212.902 1737.68,217.895C1735.2,222.889 1731.13,226.57 1725.47,228.938C1718.38,231.905 1711.71,231.972 1705.46,229.139C1699.21,226.307 1694.27,220.563 1690.65,211.91C1688.31,206.314 1687.19,201.03 1687.29,196.058C1687.39,191.085 1688.89,186.757 1691.81,183.073C1694.72,179.389 1698.4,176.615 1702.86,174.75C1708.49,172.396 1713.69,171.893 1718.46,173.243C1723.23,174.592 1727.21,177.675 1730.41,182.491L1722.42,187.381C1720.15,184.24 1717.62,182.224 1714.82,181.331C1712.02,180.439 1709.15,180.605 1706.22,181.83C1701.8,183.681 1698.87,186.77 1697.43,191.099C1695.99,195.428 1696.71,201.025 1699.58,207.889C1702.49,214.851 1705.94,219.352 1709.93,221.391C1713.92,223.431 1718.06,223.553 1722.35,221.756C1725.8,220.314 1728.24,218.052 1729.66,214.971C1731.09,211.89 1731.19,208.024 1729.97,203.374ZM1789.41,205.087L1786.98,197.203C1784.67,204.558 1779.93,209.345 1772.76,211.563C1769.59,212.542 1766.45,212.849 1763.33,212.485C1760.2,212.12 1757.69,211.226 1755.8,209.801C1753.9,208.376 1752.27,206.416 1750.91,203.921C1749.98,202.249 1748.92,199.477 1747.73,195.602L1737.45,162.347L1746.55,159.536L1755.75,189.303C1757.21,194.054 1758.39,197.198 1759.27,198.734C1760.58,200.949 1762.38,202.453 1764.65,203.245C1766.92,204.036 1769.43,204.011 1772.16,203.167C1774.88,202.324 1777.23,200.833 1779.19,198.696C1781.15,196.558 1782.25,194.131 1782.5,191.415C1782.75,188.699 1782.17,185.05 1780.75,180.468L1771.87,151.711L1780.96,148.9L1797.55,202.572L1789.41,205.087ZM1820.82,197.406L1812.11,198.851L1799.43,122.347L1808.82,120.79L1813.34,148.083C1816.49,142.451 1821.14,139.125 1827.29,138.104C1830.7,137.539 1834.04,137.691 1837.32,138.561C1840.59,139.431 1843.41,140.947 1845.79,143.108C1848.17,145.27 1850.2,148.016 1851.9,151.345C1853.6,154.674 1854.78,158.34 1855.44,162.34C1857.01,171.838 1855.88,179.568 1852.04,185.53C1848.2,191.492 1843,195.018 1836.42,196.108C1829.88,197.192 1824.3,195.311 1819.67,190.466L1820.82,197.406ZM1816.06,169.296C1817.16,175.941 1818.86,180.592 1821.16,183.249C1824.91,187.595 1829.32,189.35 1834.36,188.514C1838.47,187.834 1841.72,185.463 1844.12,181.401C1846.52,177.339 1847.14,171.777 1845.97,164.714C1844.77,157.478 1842.45,152.376 1839.01,149.407C1835.57,146.438 1831.81,145.291 1827.74,145.966C1823.63,146.646 1820.38,149.017 1817.98,153.079C1815.58,157.141 1814.94,162.546 1816.06,169.296ZM1868.23,124.107L1867.63,113.174L1877.13,112.648L1877.74,123.581L1868.23,124.107ZM1871.92,190.603L1868.81,134.512L1878.32,133.985L1881.42,190.076L1871.92,190.603ZM1895.85,188.956L1900.18,132.947L1908.73,133.608L1908.11,141.572C1912.7,135.737 1918.88,133.121 1926.65,133.723C1930.03,133.984 1933.08,134.831 1935.82,136.263C1938.56,137.695 1940.55,139.45 1941.8,141.528C1943.06,143.606 1943.86,146.02 1944.21,148.771C1944.43,150.556 1944.37,153.646 1944.03,158.041L1941.36,192.48L1931.87,191.745L1934.51,157.675C1934.81,153.808 1934.66,150.887 1934.07,148.914C1933.48,146.941 1932.29,145.31 1930.5,144.021C1928.7,142.733 1926.54,141.991 1924.01,141.795C1919.97,141.482 1916.38,142.495 1913.24,144.834C1910.11,147.174 1908.26,151.929 1907.71,159.102L1905.34,189.691L1895.85,188.956ZM1952.74,199.064L1961.13,203.21C1960.62,206.047 1961.01,208.358 1962.29,210.14C1964,212.542 1966.8,214.37 1970.69,215.623C1974.89,216.973 1978.4,217.177 1981.22,216.233C1984.05,215.289 1986.35,213.436 1988.12,210.674C1989.19,208.979 1990.65,205.172 1992.52,199.253C1987.06,202.645 1981.37,203.389 1975.47,201.488C1968.11,199.122 1963.28,194.639 1960.96,188.039C1958.63,181.438 1958.67,174.429 1961.06,167.01C1962.7,161.907 1965.14,157.496 1968.37,153.777C1971.61,150.058 1975.35,147.587 1979.62,146.367C1983.88,145.146 1988.38,145.297 1993.12,146.82C1999.43,148.851 2003.81,153.077 2006.26,159.497L2008.34,153.052L2016.69,155.742L2001.82,201.967C1999.14,210.292 1996.39,215.919 1993.58,218.848C1990.77,221.777 1987.2,223.657 1982.87,224.488C1978.55,225.319 1973.7,224.87 1968.33,223.142C1961.95,221.089 1957.26,217.996 1954.26,213.862C1951.25,209.728 1950.75,204.795 1952.74,199.064ZM1970.58,169.353C1968.32,176.369 1968.07,181.937 1969.82,186.056C1971.57,190.176 1974.54,192.91 1978.74,194.261C1982.9,195.6 1986.91,195.121 1990.76,192.823C1994.61,190.524 1997.64,185.951 1999.84,179.103C2001.95,172.557 2002.08,167.155 2000.25,162.897C1998.41,158.639 1995.45,155.852 1991.36,154.533C1987.33,153.237 1983.38,153.772 1979.5,156.137C1975.63,158.503 1972.66,162.908 1970.58,169.353Z" style="fill:rgb(0,58,102);"/>
</svg>
